<svg width="200" height="15" fill="none" xmlns="http://www.w3.org/2000/svg"><path d="M194.607 1.233c-3.274 3.066-4.406 5.814-11.419 7.313-8.633 1.846-17.226-2.56-21.48-6.171-1.468-1.247-5.028-1.487-6.399 0-6.009 6.515-19.318 4.924-24.997-1.364-1.396-1.547-6.117-1.27-6.697.499-3.191 9.747-17.519 10.779-27.114 3.714 1.047-1.902-4.416-3.197-5.906-1.335-8.055 10.072-23.78 8.946-32.908-.042-1.584-1.56-5.133-1.012-6.156.46C44.113 14.975 32.559 9.9 26.076 2.555c-1.263-1.431-4.864-.936-5.625.419-3.543 6.308-9.38 7.486-19.214 9.118-1.852.308-1.566 2.14.47 1.985 11.268-.856 17.422-1.999 22.027-6.782 9.461 8.422 22.67 10.142 31.532 1.28 11.493 8.2 29.953 9.136 39.1-.62 10.16 7.877 27.199 7.49 34.022-1.096 8.802 5.92 21.614 6.751 30.478.127 13.191 7.56 40.17 9.253 41.131-4.92.12-1.69-3.942-2.191-5.39-.834Z" fill="#00B2A0"/></svg>