<svg width="50" height="50" fill="none" xmlns="http://www.w3.org/2000/svg"><path d="m43.996 47.722-.438-.023c.266-.576-.08-1.385-.705-1.538-1.837-.448-3.73-.216-5.625-.78-3.04-.905-5.871-2.558-8.485-4.347-5.161-3.535-10.673-10.072-3.535-14.71.844-.548.599-2.187-.552-2.073-1.792.179-3.586.276-5.382.378.95-.54 1.721-1.8 2.318-2.546 1.205-1.507 2.59-2.11 4.496-2.225 1.196-.073 1.373-1.66.275-2.07-.206-.076-.407-.394-.602-.531a8.844 8.844 0 0 0-1.441-.808 25.27 25.27 0 0 0-1.437-.59c2.395-.842 3.9-3.75 6.787-3.879 1.05-.046 1.513-1.25.828-2.035-.734-.842-1.282-1.716-1.889-2.55a21.576 21.576 0 0 1 4.51.24c.51.082.946-.682.385-.93-2.25-.998-4.699-1.11-7.094-1.477-1.371-.21-2.07 1.4-.932 2.25.913.681 1.518 1.589 2.134 2.501a8.906 8.906 0 0 0-2.746 1.411c-1.3.97-2.909 1.98-3.856 3.307-.311.436-.052 1.05.383 1.284a.38.38 0 0 0 .185.278c.588.343 1.188.666 1.777 1.007.123.071.543.33.94.597-1.404.209-2.672.741-3.799 1.811-.598.569-1.093 1.253-1.633 1.877-.689.796-1.468 1.252-1.61 2.356-.073.567.494.92.956.973.081.009.157-.011.237-.014-.371.388-.215 1.172.48 1.212.9.052 1.8.102 2.7.16-4.287 4.237-1.863 10.12 2.706 14.476 1.674 1.594 5.45 4.538 9.349 6.471-12.52-.864-26.109-3.45-30.122-16.84-2.328-7.766 1.53-16.2 6.79-21.697 2.776-2.9 6.329-4.818 10.182-5.706 4.591-1.06 8.21 1.064 12.215 2.894 1.015.463 2.017-.706 1.213-1.598-5.633-6.244-15.294-4.79-21.67-.768C4.8 8.19.196 17.148.003 25.984c-.2 9.18 6.78 17.267 14.764 20.641 9.328 3.942 19.354 3.605 29.228 3.025 1.22-.072 1.222-1.858 0-1.928Z" fill="#00B2A0"/><path d="M49.81 44.14c-.924-2.14-2.494-3.968-4.319-5.554.019-3.678.063-7.358.032-11.036a1.77 1.77 0 0 0-.041-.365c.132-1.383.03-2.73-.207-4.08l.006-.003c.858-.236 1.554-.943 2.234-1.495a29.07 29.07 0 0 0 1.612-1.379 4.78 4.78 0 0 0 .299-.273c1.488-1.46-.77-3.749-2.263-2.302-.223.216-.461.415-.699.612-.158.131-.318.259-.477.387a55.257 55.257 0 0 1-.447.35c-.337.262-.707.512-1.053.787-.242-.847-.549-1.74-1.013-2.441.38-.182.747-.383 1.074-.616 1.36-.971 2.552-2.651 1.901-4.422-.383-1.04-1.117-1.78-2.038-2.356-.202-.127-.428-.243-.65-.36a3.878 3.878 0 0 0-.463-.672c-.088-.1-.177-.177-.265-.26.034-.275-.129-.575-.47-.561-.142.006-.282.003-.423.002a1.889 1.889 0 0 0-1.073-.033c-1.137-.049-2.206-.035-3.205.874-.67.61-.965 1.393-.972 2.232-.938 2.26-1.191 5.045 1.207 6.344.39.212.813.34 1.247.43-.25.865-.438 1.736-.588 2.614-1.558.35-3.175 1.251-4.49 1.797-1.931.612-1.128 3.648.837 3.09 1.111-.315 2.179-.771 3.25-1.204a57.423 57.423 0 0 0-.086 2.574c-.002.19.053.4.137.6-.278.866-.565 1.849-.752 2.814-.25.88-.503 1.76-.776 2.634-2.64-1.467-6.128-3-8.395-1.478l-.02-.026c-.826-1.117-2.552-.175-1.879 1.117C30.81 40.6 39.197 45.151 47.828 46.764c1.6.299 2.614-1.156 1.982-2.623Zm-18.881-9.863c.296.066.605.167.908.252-.037.238-.001.486.125.702.029.048.065.092.094.14a28.98 28.98 0 0 1-1.127-1.094Zm8.67.187a.985.985 0 0 0 .239-.212c.543-.663.671-1.424.779-2.228a27.96 27.96 0 0 0 1.254-3.156c.197.028.399.043.598.063-.009 2.455.001 4.91.018 7.366a60.367 60.367 0 0 0-2.888-1.833Z" fill="#00B2A0"/></svg>