<svg width="293" height="15" fill="none" xmlns="http://www.w3.org/2000/svg"><path d="M285.099 1.233c-4.796 3.066-6.454 5.814-16.729 7.313-12.647 1.846-25.235-2.56-31.468-6.171-2.15-1.247-7.366-1.487-9.374 0-8.804 6.515-28.301 4.924-36.62-1.364-2.046-1.547-8.963-1.27-9.812.499-4.675 9.747-25.665 10.779-39.723 3.714 1.535-1.902-6.469-3.197-8.651-1.335-11.801 10.072-34.839 8.946-48.21-.042-2.321-1.56-7.52-1.012-9.02.46C64.626 14.975 47.7 9.9 38.203 2.555c-1.85-1.431-7.126-.936-8.242.419-5.19 6.308-13.742 7.486-28.148 9.118-2.713.308-2.294 2.14.69 1.985 16.506-.856 25.522-1.999 32.268-6.782 13.861 8.422 33.211 10.142 46.195 1.28 16.836 8.2 43.881 9.136 57.281-.62 14.885 7.877 39.846 7.49 49.842-1.096 12.895 5.92 31.665 6.751 44.65.127 19.326 7.56 58.849 9.253 60.258-4.92.176-1.69-5.775-2.191-7.897-.834Z" fill="#00B2A0"/></svg>