<svg width="247" height="15" fill="none" xmlns="http://www.w3.org/2000/svg"><path d="M240.34 1.233c-4.044 3.066-5.442 5.814-14.103 7.313-10.661 1.846-21.274-2.56-26.527-6.171-1.813-1.247-6.21-1.487-7.903 0-7.422 6.515-23.858 4.924-30.871-1.364-1.724-1.547-7.555-1.27-8.272.499-3.941 9.747-21.635 10.779-33.486 3.714 1.294-1.902-5.454-3.197-7.293-1.335-9.948 10.072-29.37 8.946-40.641-.042-1.957-1.56-6.34-1.012-7.603.46C54.48 14.975 40.21 9.9 32.204 2.555c-1.56-1.431-6.007-.936-6.947.419-4.376 6.308-11.585 7.486-23.73 9.118-2.287.308-1.934 2.14.581 1.985 13.916-.856 21.516-1.999 27.204-6.782 11.684 8.422 27.996 10.142 38.942 1.28 14.193 8.2 36.992 9.136 48.288-.62 12.548 7.877 33.59 7.49 42.017-1.096 10.871 5.92 26.693 6.751 37.64.127 16.291 7.56 49.61 9.253 50.798-4.92.148-1.69-4.869-2.191-6.657-.834Z" fill="#00B2A0"/></svg>