<svg width="50" height="50" fill="none" xmlns="http://www.w3.org/2000/svg"><path d="M48.437 30.46c-2.71.656-4.932 1.92-6.806 3.724-1.373-2.34-3.313-4.583-5.04-6.603-1.097-1.284-2.477-3.178-4.297-3.543a1.23 1.23 0 0 0 .46-.697 6.327 6.327 0 0 1 1.256-2.463c.3-.358.675-.664 1.039-.958.167-.135.373-.208.529-.357.203-.195.304-.491.44-.734 1.857-1.96 3.458-4.66 4.873-6.64 1.917-2.683 4.573-6.814 2.413-10.015C40.96-1.3 35.914.03 32.972 1.756c-4.492 2.636-7.678 6.97-10.704 11.024a1.315 1.315 0 0 0-.251-.486c-3.28-4.06-15.18-15.001-20.534-8.316-5.264 6.57 4.653 15.833 11.494 18.217-4.916 2.788-8.442 8.531-10.064 13.573-.862 2.677-1.269 9.192 2.39 10.406 3.304 1.096 6.644-2.683 8.557-4.684 3.084-3.227 5.674-6.845 8.428-10.326.048.193.123.403.263.66.886 1.622 2.31 2.774 3.805 3.873 1.953 1.437 4.158 2.572 6.341 3.648 1.228.604 2.688 1.48 4.135 1.748-2.087 2.235-3.249 4.541-2.817 7.725.126.927.96 1.458 1.884 1.034 3.594-1.644 6.523-4.913 8.89-7.884 2.367-2.971 5.001-6.502 5.21-10.37.042-.785-.818-1.32-1.562-1.139Zm-6.192 10.736c-1.636 1.974-3.557 4.073-5.796 5.556.137-1.976.858-3.773 1.865-5.664.01-.017.01-.034.016-.052.538-.295.685-1 .226-1.516-.822-.925-2.113-1.32-3.237-1.825a62.21 62.21 0 0 1-5.178-2.631c-1.692-.96-3.285-2.068-4.679-3.398-.403-.385-2.066-1.979-2.14-2.53-.032-.244-.367-.335-.487-.12-.535-.51-1.592-.655-2.2.101-3.867 4.803-7.553 11.388-13.217 14.445-3.31 1.787-1.968-6.62-1.543-7.865 1.636-4.797 5.137-9.2 8.671-12.857a.722.722 0 0 0 .15-.222c.846-.049 1.39-1.233.472-1.629C10.527 18.987-.02 11.478 3.37 5.789 6.648.292 17.945 11.667 20.236 14c.527.535 1.147.466 1.572.122.246.314.772.465 1.111.124 2.874-2.886 5.713-5.766 8.837-8.411 1.685-1.427 3.558-2.675 5.756-3.22 2.188-.544 4.18.863 3.78 2.972-.597 3.146-3.3 6.104-5.258 8.577-.884 1.118-2.776 2.783-3.108 4.4-.19.122-.377.25-.565.395-1.181.902-1.886 2.313-2.293 3.674-.344 1.15.869 1.844 1.792 1.606.015.164.263.226.37.077-.81 1.111 1.925 4.222 2.611 5.218 1.6 2.324 3.24 4.726 4.994 6.946-.023.872 1.335 1.644 2.053.837 1.58-1.778 3.214-3.127 5.325-3.98-.844 2.892-3.148 5.665-4.968 7.86Z" fill="#00B2A0"/></svg>