<svg width="55" height="50" fill="none" xmlns="http://www.w3.org/2000/svg"><path d="M54.361 35.774c-2.138-.392-3.75 1.012-5.768-1.08-.528-.546-1.29-.238-1.531.427-1.733 4.775-5.337 2.468-6.988-.877-.32-.647-1.226-.59-1.559 0-1.141 2.95-3.34 3.313-6.594 1.09-.517-.478-1.365-.317-1.56.435-1.416 5.482-6.368 3.976-7.894-.529-.077-.227-.242-.337-.413-.357-.348-.459-1.134-.596-1.405.047-1.951 4.633-5.573 3.924-7.828.007-.407-.707-1.247-.462-1.514.209-1.896 4.765-7.42 4.656-7.322-1.073.011-.634-.888-.759-1.04-.148-1.78 7.139 6.492 8.377 9.358 3.136 2.96 3.555 7.398 4.284 9.514-.5 1.806 5.247 7.705 6.279 9.898 1.059 2.784 1.964 5.436 1.656 7.529-1.135 2.552 3.847 7.099 5.265 9.118.517 1.852 1.324 3.081.398 5.761.624 1 .086 1.23-1.67.238-1.852Zm-3.349 7.693c-.839 1.455-1.129 2.759-2.925 3.47-2.212.877-4.413-1.214-5.502-2.928-.376-.592-1.288-.706-1.64 0-1.539 3.092-4.948 2.337-6.402-.647-.358-.734-1.567-.603-1.716.236-.817 4.626-4.487 5.116-6.945 1.763.268-.903-1.131-1.517-1.513-.634-2.063 4.78-6.091 4.246-8.43-.02-.405-.74-1.314-.48-1.576.218-1.9 5.064-4.86 2.655-6.52-.83-.324-.68-1.246-.444-1.441.199-.908 2.993-2.403 3.552-4.922 4.327-.475.146-.401 1.015.12.942 2.887-.407 4.463-.949 5.643-3.219 2.423 3.997 5.806 4.813 8.077.608 2.943 3.891 7.672 4.335 10.015-.295 2.602 3.739 6.967 3.555 8.715-.52 2.254 2.81 5.536 3.204 7.807.06 3.379 3.589 10.29 4.392 10.536-2.334.03-.803-1.01-1.04-1.381-.396ZM15.522 7.505c-.566.174-.79.623-.772 1.075-4.008.626-6.604 4.803-6.913 9.004-.424 5.749 4.2 9.126 9.212 8.697 5.126-.438 8.46-5.278 8.31-10.48-.151-5.196-4.812-9.843-9.837-8.296Zm.834 16.148c-3.679.319-6.059-2.305-5.989-6.069.074-3.944 2.936-6.545 6.253-7.585.061-.019.105-.052.154-.08 3.234.532 5.68 1.832 6.023 5.881.357 4.2-2.563 7.516-6.44 7.853ZM10.857 7.331C10.254 6.638 9.585 6.03 8.9 5.428c-.678-.597-1.398-1.75-2.355-1.656-.507.05-.85.39-.885.935-.068 1.036.9 1.544 1.602 2.072.804.604 1.64 1.144 2.386 1.83.828.761 1.96-.414 1.209-1.278ZM5.31 10.45c.321.04.037-.009-.048-.037-.13-.043-.258-.095-.386-.147a14.848 14.848 0 0 1-.43-.184l-.03-.013a1.16 1.16 0 0 0-.67-.598c-.538-.179-1.355-.605-1.936-.412-.328.109-.673.396-.736.778v.002c-.061.361-.035.832.27 1.083.17.14.37.238.577.323-.168 0-.032.008.12.046.108.039.214.079.325.11.267.095.534.191.8.29a.85.85 0 0 0 .462.033c.547.153 1.146.327 1.682.293.974-.063.933-1.448 0-1.567Zm-1.67 8.809c-.41.362-.887.646-1.352.918-.24.141-.49.287-.747.39-.155.061-.4.01-.06.075-.17-.032-.33-.036-.497-.055-1.415-.161-1.286 2.537.273 2.135.575-.148 1.162-.727 1.65-1.098.567-.43 1.133-.9 1.6-1.45.534-.628-.265-1.448-.867-.915Zm3.605 5.347c-.48.777-.916 1.582-1.372 2.374-.494.858-1.331 1.498-1.441 2.525-.07.655.61.98 1.111.894 1.026-.176 1.527-1.555 1.902-2.449.387-.921.625-1.888.935-2.84.238-.731-.766-1.102-1.135-.504Zm9.698 2.793c-.1-.549-.904-.523-1.022 0-.308 1.372-.67 2.734-.973 4.108-.074.331-.01.715.238.954-.04-.058-.036-.046.014.034.297.512.92.453 1.229 0-.282.414.199-.201.216-.233.113-.204.123-.419.135-.648.025-.475.078-.948.12-1.422.085-.922.212-1.875.043-2.793Zm10.664.811c-.734-1.113-1.9-1.827-2.567-2.975-.457-.787-1.503-.102-1.15.71.306.703.773 1.287 1.256 1.862.23.275.466.543.668.842.277.407.39.864.93.944.31.045.663-.02.82-.353l.043-.093c.134-.284.185-.657 0-.937Zm4.273-8.3c-1.236.07-2.473.135-3.708.2-1.112.059-1.112 1.764 0 1.823 1.236.065 2.471.13 3.707.199 1.357.075 1.357-2.297 0-2.222Zm0-12.811c-1.121-.025-2.027 1.397-2.7 2.223-.721.887-1.355 1.849-2.091 2.725-.563.668.304 1.595.931.983.742-.725 1.416-1.522 2.128-2.279.402-.427.819-.858 1.275-1.22.562-.446 1.003-.59 1.252-1.33.186-.548-.291-1.091-.795-1.102Zm-5.387-5.803c-.663.45-1.106 1.18-1.562 1.847-.531.778-1.037 1.56-1.652 2.27-.696.804.387 1.96 1.135 1.198.58-.592 1.094-1.237 1.598-1.902.54-.713 1.237-1.367 1.682-2.145.447-.78-.452-1.775-1.2-1.268ZM18.203.227c-.323-.303-.747-.303-1.07 0-.635.593-.342 1.628-.29 2.418.061.906.127 1.81.204 2.715.073.844 1.169.844 1.242 0 .078-.905.143-1.81.203-2.715.053-.79.346-1.826-.289-2.418Z" fill="#00B2A0"/></svg>