<svg width="55" height="50" viewBox="0 0 55 50" fill="none" xmlns="http://www.w3.org/2000/svg">
<path d="M54.3614 35.7739C52.2234 35.3821 50.6115 36.7861 48.5929 34.694C48.0654 34.1477 47.3035 34.4557 47.0617 35.121C45.3292 39.8962 41.7252 37.5892 40.0738 34.2445C39.7539 33.5971 38.8481 33.6532 38.515 34.2445C37.3736 37.1933 35.1757 37.5565 31.9209 35.334C31.4039 34.8565 30.5559 35.0171 30.3614 35.7687C28.9445 41.2505 23.9927 39.7445 22.4671 35.24C22.3904 35.0131 22.2251 34.903 22.0535 34.8833C21.7064 34.4245 20.9203 34.287 20.6494 34.9305C18.6979 39.5629 15.0758 38.8538 12.8213 34.9366C12.4144 34.2297 11.5742 34.4748 11.3074 35.1456C9.41141 39.9113 3.88688 39.8018 3.98525 34.0731C3.99606 33.4386 3.09666 33.3141 2.94457 33.9245C1.16504 41.064 9.4371 42.3021 12.3026 37.0614C15.2623 40.6157 19.7006 41.3451 21.8173 36.5616C23.6231 41.8079 29.5222 42.8398 31.7148 37.6197C34.4991 39.5842 37.1514 39.2756 39.2439 36.4846C41.7958 40.3324 46.343 41.7499 48.3617 37.0019C50.2142 38.3257 51.4431 37.3996 54.1235 37.6265C55.1239 37.7116 55.3525 35.9558 54.3614 35.7739Z" fill="#00B2A0"/>
<path d="M51.0118 43.4668C50.1731 44.922 49.8832 46.226 48.0868 46.9373C45.8755 47.8135 43.6744 45.7229 42.5847 44.0088C42.2087 43.4172 41.2968 43.3034 40.9456 44.0088C39.4063 47.1007 35.9973 46.3457 34.5427 43.3617C34.1851 42.6276 32.9757 42.7586 32.8271 43.5984C32.0097 48.2241 28.3397 48.7137 25.8818 45.361C26.1501 44.4583 24.7506 43.8438 24.3691 44.7274C22.3058 49.5069 18.2776 48.9729 15.9397 44.7077C15.5339 43.9675 14.6249 44.2271 14.3627 44.9253C12.4626 49.9888 9.50319 47.5801 7.84247 44.0948C7.51902 43.4156 6.59657 43.6508 6.40157 44.2936C5.49399 47.2872 3.99879 47.8461 1.47984 48.6206C1.00547 48.7667 1.07874 49.6361 1.6004 49.5627C4.48659 49.1564 6.06294 48.6141 7.24258 46.3441C9.66608 50.3409 13.0494 51.1572 15.3196 46.9518C18.2633 50.8434 22.9921 51.287 25.335 46.657C27.9375 50.3957 32.3019 50.2117 34.0496 46.1376C36.3044 48.9464 39.5861 49.3411 41.8567 46.1977C45.2356 49.7856 52.1462 50.5887 52.3926 43.8626C52.4232 43.0605 51.3828 42.8228 51.0118 43.4668Z" fill="#00B2A0"/>
<path d="M15.5216 7.50507C14.9559 7.67895 14.7328 8.12751 14.7501 8.5804C10.7415 9.20593 8.14631 13.383 7.83659 17.5845C7.41301 23.3329 12.0364 26.7097 17.0492 26.2809C22.1747 25.8428 25.509 21.0025 25.3583 15.8007C25.2077 10.605 20.5473 5.95773 15.5216 7.50507ZM16.3562 23.653C12.6772 23.9717 10.2972 21.3478 10.3675 17.5845C10.4414 13.6401 13.303 11.0391 16.6204 9.99918C16.6811 9.98006 16.7249 9.94738 16.7742 9.9184C20.0081 10.4511 22.4538 11.7506 22.7973 15.8001C23.1541 20.0006 20.2337 23.3163 16.3562 23.653Z" fill="#00B2A0"/>
<path d="M10.8569 7.33132C10.2535 6.63796 9.58498 6.02877 8.90043 5.4276C8.22172 4.83135 7.50186 3.67771 6.54495 3.77205C6.03818 3.822 5.69489 4.16143 5.65957 4.70711C5.59242 5.74267 6.55925 6.25136 7.26248 6.77947C8.06642 7.3828 8.9016 7.92263 9.64774 8.60859C10.4756 9.37008 11.6085 8.19485 10.8569 7.33132Z" fill="#00B2A0"/>
<path d="M5.30955 10.4497C5.63124 10.4907 5.34692 10.4414 5.26197 10.4134C5.13148 10.3699 5.00362 10.3178 4.87605 10.266C4.73155 10.2077 4.58852 10.1448 4.44577 10.0819C4.43613 10.0776 4.43088 10.0755 4.41658 10.0687C4.28054 9.79276 4.04672 9.57048 3.74575 9.4709C3.20833 9.29239 2.39096 8.86602 1.81005 9.05871C1.48164 9.16784 1.13747 9.45486 1.07354 9.83653C1.07354 9.83653 1.07325 9.83808 1.07325 9.83869C1.01253 10.2003 1.0388 10.6708 1.34444 10.9223C1.51463 11.0617 1.71371 11.1604 1.92127 11.2454C1.75312 11.2448 1.88886 11.2532 2.04095 11.2905C2.14867 11.3296 2.25493 11.3697 2.36586 11.4008C2.63325 11.4958 2.90036 11.5923 3.16629 11.6906C3.31897 11.7477 3.47631 11.7526 3.6284 11.7236C4.17516 11.8771 4.77388 12.051 5.30984 12.0165C6.28426 11.9536 6.24252 10.569 5.30955 10.4497Z" fill="#00B2A0"/>
<path d="M3.63998 19.2588C3.23071 19.6211 2.75313 19.905 2.28782 20.1772C2.04728 20.3181 1.79856 20.4639 1.5408 20.5666C1.38638 20.628 1.14058 20.5765 1.48037 20.6421C1.31164 20.6098 1.15167 20.6064 0.983821 20.5873C-0.431102 20.426 -0.302366 23.1242 1.25735 22.7222C1.83184 22.5742 2.41889 21.9952 2.90726 21.6244C3.47388 21.1943 4.03961 20.7241 4.50668 20.1741C5.0406 19.5458 4.24162 18.7258 3.63998 19.2588Z" fill="#00B2A0"/>
<path d="M7.24527 24.6062C6.76594 25.3831 6.32894 26.1883 5.87296 26.9804C5.37875 27.8383 4.54153 28.4781 4.43177 29.5047C4.36171 30.1601 5.04129 30.4847 5.5431 30.3987C6.56919 30.223 7.06982 28.8437 7.44494 27.9503C7.83202 27.0285 8.06993 26.0616 8.37995 25.1109C8.61815 24.3787 7.61396 24.0081 7.24527 24.6062Z" fill="#00B2A0"/>
<path d="M16.9431 27.3986C16.8421 26.8502 16.0391 26.8764 15.9214 27.3986C15.6126 28.7715 15.2509 30.1326 14.9476 31.5067C14.8743 31.8384 14.9374 32.2222 15.1864 32.4609C15.1455 32.4032 15.1502 32.4146 15.2001 32.4945C15.497 33.0068 16.1208 32.9483 16.4285 32.4945C16.1474 32.9088 16.6276 32.2938 16.6448 32.2623C16.7581 32.0579 16.7677 31.8433 16.7797 31.614C16.8048 31.1392 16.8576 30.6656 16.9005 30.1924C16.9849 29.2697 17.1124 28.3171 16.9431 27.3986Z" fill="#00B2A0"/>
<path d="M27.6073 28.2096C26.8732 27.0973 25.7073 26.3833 25.0399 25.2346C24.5831 24.4478 23.5368 25.1332 23.8898 25.9446C24.1957 26.6478 24.6631 27.2317 25.1456 27.8073C25.3759 28.082 25.6118 28.3502 25.8144 28.6487C26.0908 29.0559 26.2044 29.5134 26.7433 29.5927C27.0533 29.6383 27.4071 29.5735 27.5636 29.2397C27.5782 29.2088 27.5927 29.178 27.6071 29.1469C27.7407 28.8626 27.7921 28.4899 27.6073 28.2096Z" fill="#00B2A0"/>
<path d="M31.8792 19.9104C30.6435 19.9792 29.4075 20.0452 28.1718 20.1102C27.0599 20.1688 27.0599 21.8737 28.1718 21.9325C29.4078 21.9979 30.6435 22.0639 31.8792 22.132C33.236 22.2075 33.236 19.8355 31.8792 19.9104Z" fill="#00B2A0"/>
<path d="M31.8797 7.09895C30.7587 7.07429 29.8526 8.49614 29.1809 9.32207C28.459 10.2093 27.8247 11.1709 27.0887 12.0465C26.5265 12.7155 27.3932 13.6419 28.02 13.0299C28.762 12.3048 29.4358 11.5079 30.148 10.751C30.5503 10.3237 30.9666 9.89334 31.4231 9.53047C31.9845 9.08499 32.4256 8.9404 32.6752 8.20141C32.8605 7.65296 32.3835 7.11005 31.8797 7.09895Z" fill="#00B2A0"/>
<path d="M26.4932 1.2963C25.8297 1.74579 25.3871 2.47583 24.9312 3.14329C24.3996 3.92143 23.8943 4.70327 23.2795 5.41296C22.5833 6.21669 23.6663 7.3731 24.4139 6.611C24.9942 6.01907 25.508 5.37381 26.0115 4.70912C26.5522 3.99573 27.2493 3.34245 27.6942 2.56431C28.1408 1.78371 27.2417 0.789458 26.4932 1.2963Z" fill="#00B2A0"/>
<path d="M18.2032 0.226597C17.8797 -0.0755323 17.4565 -0.0755323 17.133 0.226597C16.4981 0.819757 16.7909 1.85532 16.8437 2.64486C16.9045 3.55064 16.9696 4.45548 17.0475 5.36002C17.1202 6.20352 18.216 6.20352 18.2887 5.36002C18.3667 4.45517 18.4318 3.55094 18.4925 2.64486C18.5453 1.85563 18.8381 0.819449 18.2032 0.226597Z" fill="#00B2A0"/>
</svg>
