<svg width="60" height="63" viewBox="0 0 60 63" fill="none" xmlns="http://www.w3.org/2000/svg">
<path d="M11.412 29.512H16.02L18.936 37.972L21.888 29.512H26.46L22.068 41.14L25.308 49.276L32.544 29.44H37.944L27.72 55H23.436L18.936 44.272L14.472 55H10.188L0 29.44H5.328L12.6 49.276L15.768 41.14L11.412 29.512Z" fill="white"/>
<path d="M33.412 8.512H38.02L40.936 16.972L43.888 8.512H48.46L44.068 20.14L47.308 28.276L54.544 8.44H59.944L49.72 34H45.436L40.936 23.272L36.472 34H32.188L22 8.44H27.328L34.6 28.276L37.768 20.14L33.412 8.512Z" fill="white"/>
</svg>
